<svg width="80" height="89" viewBox="0 0 80 89" fill="none" xmlns="http://www.w3.org/2000/svg">
<g filter="url(#filter0_d_606_25738)">
<path d="M66.0565 44.9394C66.0565 55.4584 57.8489 63.9218 47.8018 63.9218C37.7547 63.9218 29.5471 55.4584 29.5471 44.9394C29.5471 34.4204 37.7547 25.957 47.8018 25.957C57.8489 25.957 66.0565 34.4204 66.0565 44.9394Z" fill="white" stroke="#333333" stroke-width="2"/>
<path fill-rule="evenodd" clip-rule="evenodd" d="M40.3133 52.7064C39.9372 52.3162 39.9372 51.6836 40.3133 51.2934L53.9284 37.1637C54.3043 36.7736 54.9139 36.7736 55.2899 37.1637C55.6658 37.5539 55.6658 38.1865 55.2899 38.5767L41.6748 52.7064C41.2987 53.0966 40.6892 53.0966 40.3133 52.7064Z" fill="#333333"/>
<path fill-rule="evenodd" clip-rule="evenodd" d="M40.3132 37.1637C40.6893 36.7736 41.2988 36.7736 41.6748 37.1637L55.2899 51.2935C55.6658 51.6836 55.6658 52.3162 55.2899 52.7064C54.9139 53.0966 54.3043 53.0966 53.9284 52.7064L40.3132 38.5767C39.9373 38.1865 39.9373 37.5539 40.3132 37.1637Z" fill="#333333"/>
</g>
<defs>
<filter id="filter0_d_606_25738" x="0.547119" y="0.957031" width="86.5093" height="87.9648" filterUnits="userSpaceOnUse" color-interpolation-filters="sRGB">
<feFlood flood-opacity="0" result="BackgroundImageFix"/>
<feColorMatrix in="SourceAlpha" type="matrix" values="0 0 0 0 0 0 0 0 0 0 0 0 0 0 0 0 0 0 127 0" result="hardAlpha"/>
<feOffset dx="-4"/>
<feGaussianBlur stdDeviation="12"/>
<feComposite in2="hardAlpha" operator="out"/>
<feColorMatrix type="matrix" values="0 0 0 0 0 0 0 0 0 0 0 0 0 0 0 0 0 0 0.08 0"/>
<feBlend mode="normal" in2="BackgroundImageFix" result="effect1_dropShadow_606_25738"/>
<feBlend mode="normal" in="SourceGraphic" in2="effect1_dropShadow_606_25738" result="shape"/>
</filter>
</defs>
</svg>
