<svg width="91" height="91" viewBox="0 0 91 91" fill="none" xmlns="http://www.w3.org/2000/svg">
<path fill-rule="evenodd" clip-rule="evenodd" d="M71.5099 52.6381C73.917 48.8594 75.3114 44.3727 75.3114 39.5605C75.3114 26.0986 64.3984 15.1855 50.9364 15.1855C46.1243 15.1855 41.6377 16.5801 37.8589 18.9871C35.295 19.132 32.8119 19.58 30.4453 20.2957C35.5751 14.8415 42.858 11.4355 50.9364 11.4355C66.4695 11.4355 79.0614 24.0275 79.0614 39.5605C79.0614 47.639 75.6555 54.9219 70.2013 60.0517C70.917 57.685 71.3651 55.2022 71.5099 52.6381Z" fill="#752ECC" fill-opacity="0.2"/>
<path fill-rule="evenodd" clip-rule="evenodd" d="M75.1864 53.8158C73.8251 56.1265 72.1429 58.2256 70.2013 60.0517C70.917 57.685 71.3651 55.2022 71.5099 52.6381C71.5099 52.6385 71.5101 52.6377 71.5099 52.6381C73.9164 48.8602 75.3109 44.3746 75.3114 39.5634C75.3114 39.5624 75.3114 39.5615 75.3114 39.5605C75.3114 26.0986 64.3984 15.1855 50.9364 15.1855C46.1243 15.1855 41.6377 16.5801 37.8589 18.9871C37.8585 18.9871 37.8594 18.9871 37.8589 18.9871C35.295 19.132 32.8119 19.58 30.4453 20.2957C32.2716 18.3541 34.3704 16.672 36.6812 15.3107C40.8439 12.8584 45.6934 11.4473 50.8716 11.4356C50.8931 11.4356 50.9149 11.4355 50.9364 11.4355C66.4695 11.4355 79.0614 24.0275 79.0614 39.5605C79.0614 39.8437 79.0573 40.1257 79.0491 40.4067C78.9047 45.2913 77.5149 49.8631 75.1864 53.8158Z" fill="#752ECC" fill-opacity="0.2"/>
<path fill-rule="evenodd" clip-rule="evenodd" d="M67.8105 50.8105C67.8105 66.3436 55.2186 78.9355 39.6855 78.9355C24.1525 78.9355 11.5605 66.3436 11.5605 50.8105C11.5605 35.2775 24.1525 22.6855 39.6855 22.6855C55.2186 22.6855 67.8105 35.2775 67.8105 50.8105ZM37.8105 41.4355C35.7394 41.4355 34.0605 43.1144 34.0605 45.1855C34.0605 47.2567 35.7394 48.9355 37.8105 48.9355V41.4355ZM41.5605 37.6855V35.8105H37.8105V37.6855C33.6685 37.6855 30.3105 41.0435 30.3105 45.1855C30.3105 49.3276 33.6685 52.6855 37.8105 52.6855V60.1855C36.1806 60.1855 34.7892 59.1447 34.2734 57.6858C33.9284 56.7093 32.8572 56.1976 31.8809 56.5428C30.9044 56.8878 30.3927 57.959 30.7379 58.9353C31.7665 61.8459 34.542 63.9355 37.8105 63.9355V65.8105H41.5605V63.9355C45.7026 63.9355 49.0605 60.5776 49.0605 56.4355C49.0605 52.2935 45.7026 48.9355 41.5605 48.9355V41.4355C43.1905 41.4355 44.5819 42.4764 45.0977 43.9353C45.4427 44.9118 46.5139 45.4235 47.4902 45.0783C48.4667 44.7333 48.9784 43.6621 48.6332 42.6858C47.6046 39.7752 44.829 37.6855 41.5605 37.6855ZM41.5605 52.6855V60.1855C43.6317 60.1855 45.3105 58.5067 45.3105 56.4355C45.3105 54.3644 43.6317 52.6855 41.5605 52.6855Z" fill="#752ECC" fill-opacity="0.2"/>
</svg>
