<svg width="20" height="21" viewBox="0 0 20 21" fill="none" xmlns="http://www.w3.org/2000/svg">
<path d="M19 9.62893C19.0034 10.9488 18.6951 12.2508 18.1 13.4289C17.3944 14.8407 16.3098 16.0281 14.9674 16.8582C13.6251 17.6883 12.0782 18.1283 10.5 18.1289C9.18013 18.1324 7.87812 17.824 6.7 17.2289L1 19.1289L2.9 13.4289C2.30493 12.2508 1.99656 10.9488 2 9.62893C2.00061 8.05069 2.44061 6.50379 3.27072 5.16148C4.10083 3.81918 5.28825 2.7345 6.7 2.02893C7.87812 1.43387 9.18013 1.12549 10.5 1.12893H11C13.0843 1.24393 15.053 2.1237 16.5291 3.59979C18.0052 5.07589 18.885 7.04459 19 9.12893V9.62893Z" stroke="#64748B" stroke-width="2" stroke-linecap="round" stroke-linejoin="round"/>
</svg>
