<svg width="36" height="35" viewBox="0 0 36 35" fill="none" xmlns="http://www.w3.org/2000/svg">
<path d="M11.417 16.0431C11.416 16.9772 11.6143 17.9007 11.9985 18.7521C12.1426 19.0713 12.3116 19.3776 12.5034 19.6683C11.5479 19.6792 10.6171 19.9756 9.83084 20.5202C9.22169 20.9421 8.72142 21.4977 8.366 22.1408C6.73049 21.6035 5.70832 20.6402 5.08221 19.5986C4.16909 18.0785 4.16699 16.5011 4.16699 16.2282V15.7046C4.16699 14.6929 4.98447 13.8763 5.99533 13.8763H11.782C11.5402 14.5701 11.4159 15.3025 11.417 16.0431ZM11.417 16.0431C11.417 16.0428 11.417 16.0424 11.417 16.0421L12.167 16.043L11.417 16.0442C11.417 16.0439 11.417 16.0435 11.417 16.0431ZM24.5837 16.0427C24.5848 15.3022 24.4604 14.57 24.2187 13.8763H30.0053C31.0171 13.8763 31.8337 14.6938 31.8337 15.7046V16.2296C31.8337 16.4997 31.8316 18.0783 30.9201 19.5984C30.2925 20.6402 29.2701 21.6035 27.6348 22.1407C27.2794 21.4975 26.7792 20.9419 26.17 20.5199C25.3837 19.9753 24.4528 19.6789 23.4972 19.6683C23.6891 19.3776 23.858 19.0713 24.0021 18.7521C24.3864 17.9006 24.5847 16.9769 24.5837 16.0427ZM24.5837 16.0427C24.5837 16.0425 24.5837 16.0423 24.5837 16.0421L23.8337 16.043L24.5837 16.0443C24.5837 16.0437 24.5837 16.0432 24.5837 16.0427ZM14.0011 9.85623C13.3213 10.536 12.3992 10.918 11.4378 10.918C10.4764 10.918 9.55438 10.536 8.87456 9.85623C8.19474 9.17641 7.81283 8.25438 7.81283 7.29297C7.81283 6.33156 8.19474 5.40953 8.87456 4.72971C9.55438 4.04989 10.4764 3.66797 11.4378 3.66797C12.3992 3.66797 13.3213 4.04989 14.0011 4.72971C14.6809 5.40953 15.0628 6.33156 15.0628 7.29297C15.0628 8.25438 14.6809 9.17641 14.0011 9.85623ZM28.1878 7.29297C28.1878 8.25438 27.8059 9.17641 27.1261 9.85623C26.4463 10.536 25.5242 10.918 24.5628 10.918C23.6014 10.918 22.6794 10.536 21.9996 9.85623C21.3197 9.17641 20.9378 8.25438 20.9378 7.29297C20.9378 6.33156 21.3197 5.40953 21.9996 4.72971C22.6794 4.04989 23.6014 3.66797 24.5628 3.66797C25.5242 3.66797 26.4463 4.04989 27.1261 4.72971C27.8059 5.40953 28.1878 6.33156 28.1878 7.29297ZM10.7295 24.4546C10.7295 23.4429 11.547 22.6263 12.5578 22.6263H23.4428C24.4534 22.6263 25.2712 23.4441 25.2712 24.4546V24.9796C25.2712 25.2497 25.2691 26.8282 24.3576 28.3483C23.4218 29.9024 21.572 31.3346 18.0003 31.3346C14.4285 31.3346 12.5775 29.9022 11.6433 28.3487C10.7316 26.8285 10.7295 25.2512 10.7295 24.9782V24.4546ZM19.3876 19.392C18.9477 19.5742 18.4764 19.668 18.0003 19.668C17.0389 19.668 16.1169 19.286 15.4371 18.6062C14.7572 17.9264 14.3753 17.0044 14.3753 16.043C14.3753 15.0816 14.7572 14.1595 15.4371 13.4797C16.1169 12.7999 17.0389 12.418 18.0003 12.418C18.4764 12.418 18.9477 12.5117 19.3876 12.6939C19.8274 12.8761 20.227 13.1431 20.5636 13.4797C20.9002 13.8163 21.1672 14.2159 21.3494 14.6557C21.5316 15.0955 21.6253 15.5669 21.6253 16.043C21.6253 16.519 21.5316 16.9904 21.3494 17.4302C21.1672 17.87 20.9002 18.2696 20.5636 18.6062C20.227 18.9428 19.8274 19.2099 19.3876 19.392Z" stroke="#AFAFAF" stroke-width="1.5"/>
</svg>
