<svg width="10" height="17" viewBox="0 0 10 17" fill="none" xmlns="http://www.w3.org/2000/svg">
<path d="M1.58642 4.32316C0.912734 4.03684 0.626419 3.20316 1.03063 2.59684C1.84747 1.38421 3.21168 0.5 5.01379 0.5C6.99273 0.5 8.34852 1.40105 9.03905 2.52947C9.62852 3.49789 9.97379 5.30842 9.06431 6.65579C8.05379 8.14632 7.08537 8.60105 6.56326 9.56105C6.43694 9.78842 6.36116 9.97368 6.31063 10.3526C6.23484 10.9674 5.72958 11.4474 5.10642 11.4474C4.37379 11.4474 3.77589 10.8158 3.8601 10.0832C3.91063 9.65368 4.01168 9.20737 4.24747 8.78632C4.89589 7.61579 6.14221 6.92526 6.86642 5.88947C7.63273 4.80316 7.20326 2.77368 5.03063 2.77368C4.04537 2.77368 3.40537 3.28737 3.00958 3.90211C2.71484 4.38211 2.1001 4.53368 1.58642 4.32316ZM6.70642 14.8158C6.70642 15.7421 5.94852 16.5 5.02221 16.5C4.09589 16.5 3.338 15.7421 3.338 14.8158C3.338 13.8895 4.09589 13.1316 5.02221 13.1316C5.94852 13.1316 6.70642 13.8895 6.70642 14.8158Z" fill="#636C71"/>
</svg>
