<svg width="23" height="20" viewBox="0 0 23 20" fill="none" xmlns="http://www.w3.org/2000/svg">
<path d="M9.09016 11C9.64016 11 10.0902 11.45 10.0902 12C10.0902 12.55 9.64016 13 9.09016 13C8.54016 13 8.09016 12.55 8.09016 12C8.09016 11.45 8.54016 11 9.09016 11ZM9.09016 9C7.43016 9 6.09016 10.34 6.09016 12C6.09016 13.66 7.43016 15 9.09016 15C10.7502 15 12.0902 13.66 12.0902 12C12.0902 10.34 10.7502 9 9.09016 9ZM17.5902 7L18.6802 4.59L21.0902 3.5L18.6802 2.41L17.5902 0L16.5002 2.41L14.0902 3.5L16.5002 4.59L17.5902 7ZM20.3702 10.72L19.5902 9L18.8102 10.72L17.0902 11.5L18.8102 12.28L19.5902 14L20.3702 12.28L22.0902 11.5L20.3702 10.72ZM15.3402 12C15.3402 11.88 15.3402 11.75 15.3302 11.63L17.2702 10.16L14.7702 5.83L12.5302 6.77C12.3302 6.64 12.1102 6.51 11.8902 6.4L11.5902 4H6.59016L6.29016 6.41C6.07016 6.52 5.86016 6.65 5.65016 6.78L3.41016 5.83L0.910156 10.16L2.85016 11.63C2.84016 11.75 2.84016 11.88 2.84016 12C2.84016 12.12 2.84016 12.25 2.85016 12.37L0.910156 13.84L3.41016 18.17L5.65016 17.23C5.85016 17.36 6.07016 17.49 6.29016 17.6L6.59016 20H11.5902L11.8902 17.59C12.1102 17.48 12.3202 17.36 12.5302 17.22L14.7702 18.16L17.2702 13.83L15.3302 12.36C15.3402 12.25 15.3402 12.12 15.3402 12ZM13.9202 15.64L12.1902 14.91C11.6302 15.51 10.8902 15.95 10.0602 16.14L9.82016 18H8.36016L8.13016 16.14C7.30016 15.95 6.56016 15.51 6.00016 14.91L4.27016 15.64L3.54016 14.37L5.03016 13.24C4.91016 12.85 4.85016 12.44 4.85016 12.01C4.85016 11.58 4.91016 11.17 5.03016 10.78L3.54016 9.65L4.27016 8.38L6.00016 9.11C6.56016 8.51 7.30016 8.07 8.13016 7.88L8.36016 6H9.83016L10.0602 7.86C10.8902 8.05 11.6302 8.49 12.1902 9.09L13.9202 8.36L14.6502 9.63L13.1602 10.76C13.2802 11.15 13.3402 11.56 13.3402 11.99C13.3402 12.42 13.2802 12.83 13.1602 13.22L14.6502 14.35L13.9202 15.64Z" fill="white"/>
</svg>
