<svg width="32" height="31" viewBox="0 0 32 31" fill="none" xmlns="http://www.w3.org/2000/svg">
<path d="M26.1617 6.92836L25.9039 7.04493L25.7874 7.30265L24.8812 9.30632L23.9749 7.30265L23.8584 7.04493L23.6006 6.92836L21.597 6.02214L23.6006 5.11591L23.8584 4.99934L23.9749 4.74162L24.8812 2.73795L25.7874 4.74162L25.9039 4.99934L26.1617 5.11591L28.1653 6.02214L26.1617 6.92836ZM28.2523 16.8611L28.3687 17.1179L28.6256 17.2343L29.6277 17.6888L28.6256 18.1433L28.3687 18.2597L28.2523 18.5165L27.7978 19.5187L27.3434 18.5165L27.2269 18.2597L26.9701 18.1433L25.9679 17.6888L26.9701 17.2343L27.2269 17.1179L27.3434 16.8611L27.7978 15.8589L28.2523 16.8611ZM21.1324 17.2806L20.8037 17.5297L20.8379 17.9407C20.8494 18.079 20.8499 18.2366 20.8499 18.418C20.8499 18.6021 20.8493 18.7552 20.8384 18.8751L20.8007 19.2894L21.1324 19.5407L23.4341 21.2848L20.4495 26.454L17.7922 25.3389L17.4209 25.1831L17.086 25.4064C16.8079 25.5918 16.5289 25.7514 16.2332 25.8992L15.874 26.0788L15.8244 26.4774L15.4687 29.3346H9.50157L9.14619 26.4916L9.09641 26.0933L8.7374 25.9138C8.44736 25.7688 8.15131 25.5943 7.87739 25.4162L7.54452 25.1999L7.17844 25.3535L4.52109 26.4686L1.53656 21.2994L3.83827 19.5553L4.16698 19.3063L4.13273 18.8953C4.1212 18.7569 4.12074 18.5994 4.12074 18.418C4.12074 18.2366 4.1212 18.079 4.13273 17.9407L4.16698 17.5297L3.83827 17.2806L1.53656 15.5365L4.51983 10.3695L7.17582 11.4959L7.53328 11.6475L7.86342 11.4432C8.17461 11.2505 8.4521 11.0794 8.7374 10.9367L9.09663 10.7571L9.14624 10.3585L9.50191 7.5013H15.4691L15.8244 10.3443L15.8742 10.7426L16.2332 10.9221C16.5233 11.0671 16.8193 11.2417 17.0932 11.4197L17.4261 11.6361L17.7922 11.4825L20.4495 10.3673L23.4341 15.5365L21.1324 17.2806ZM19.2375 24.4173L19.8529 24.677L20.1818 24.0957L21.2464 22.2144L21.5693 21.6437L21.0469 21.2475L19.2734 19.9025C19.3804 19.4174 19.4332 18.9172 19.4332 18.4034C19.4332 17.8895 19.3804 17.3894 19.2734 16.9043L21.0469 15.5593L21.5729 15.1604L21.2439 14.588L20.1793 12.7359L19.8487 12.1607L19.2375 12.4186L17.1769 13.2881C16.4437 12.6149 15.5593 12.0952 14.5825 11.7889L14.3088 9.57593L14.2275 8.91797H13.5645H11.4207H10.7569L10.6763 9.57689L10.4021 11.8183C9.42547 12.1246 8.54138 12.6443 7.80827 13.3173L5.74773 12.4478L5.13652 12.1899L4.80592 12.765L3.74133 14.6171L3.41232 15.1895L3.93837 15.5885L5.71186 16.9335C5.60486 17.4186 5.55199 17.9187 5.55199 18.4326C5.55199 18.9464 5.60486 19.4465 5.71186 19.9316L3.93837 21.2766L3.41232 21.6756L3.74133 22.248L4.80592 24.1001L5.13652 24.6752L5.74773 24.4173L7.80827 23.5478C8.54155 24.221 9.42588 24.7408 10.4028 25.047L10.6764 27.26L10.7578 27.918H11.4207H13.5499H14.2093L14.2937 27.2639L14.5797 25.0479C15.5577 24.7418 16.443 24.2216 17.1769 23.5478L19.2375 24.4173ZM14.6937 18.418C14.6937 17.2017 13.7016 16.2096 12.4853 16.2096C11.269 16.2096 10.277 17.2017 10.277 18.418C10.277 19.6343 11.269 20.6263 12.4853 20.6263C13.7016 20.6263 14.6937 19.6343 14.6937 18.418ZM8.86032 18.418C8.86032 16.4113 10.4787 14.793 12.4853 14.793C14.4919 14.793 16.1103 16.4113 16.1103 18.418C16.1103 20.4246 14.4919 22.043 12.4853 22.043C10.4787 22.043 8.86032 20.4246 8.86032 18.418Z" stroke="#AFAFAF" stroke-width="1.5"/>
</svg>
