<svg width="64" height="64" viewBox="0 0 64 64" fill="none" xmlns="http://www.w3.org/2000/svg">
<rect width="64" height="64" rx="32" fill="white"/>
<path d="M48.6664 32.3946C48.6664 31.2572 48.5773 30.1198 48.3992 28.9824H32.3672V35.4566H41.5411C41.1848 37.5563 39.9379 39.3936 38.1565 40.531V44.7305H43.6787C46.796 41.7559 48.6664 37.4689 48.6664 32.3946Z" fill="#4285F4"/>
<path d="M32.2781 48.6663C36.9095 48.6663 40.7394 47.1789 43.5895 44.6418L38.0674 40.4423C36.5533 41.4922 34.5938 42.0171 32.2781 42.0171C27.8247 42.0171 24.0839 39.0425 22.7479 35.1055H17.1367V39.3924C19.9869 45.1667 25.8653 48.6663 32.2781 48.6663Z" fill="#34A853"/>
<path d="M22.7488 35.1932C22.0363 33.0934 22.0363 30.9061 22.7488 28.8064V24.5195H17.1376C14.7328 29.2439 14.7328 34.7557 17.1376 39.4801L22.7488 35.1932Z" fill="#FBBC04"/>
<path d="M32.2785 21.8957C34.6833 21.8957 37.0881 22.7705 38.7803 24.4328L43.5899 19.7084C40.4726 16.9088 36.4646 15.334 32.1894 15.334C25.7766 15.334 19.8982 18.921 16.959 24.5204L22.5702 28.8072C24.0843 24.8702 27.9142 21.8957 32.2785 21.8957Z" fill="#EA4335"/>
</svg>
