<svg width="22" height="23" viewBox="0 0 22 23" fill="none" xmlns="http://www.w3.org/2000/svg">
<path d="M6 21.1289H3C2.46957 21.1289 1.96086 20.9182 1.58579 20.5431C1.21071 20.168 1 19.6593 1 19.1289V12.1289C1 11.5985 1.21071 11.0898 1.58579 10.7147C1.96086 10.3396 2.46957 10.1289 3 10.1289H6M13 8.12891V4.12891C13 3.33326 12.6839 2.5702 12.1213 2.00759C11.5587 1.44498 10.7956 1.12891 10 1.12891L6 10.1289V21.1289H17.28C17.7623 21.1344 18.2304 20.9653 18.5979 20.6529C18.9654 20.3405 19.2077 19.9058 19.28 19.4289L20.66 10.4289C20.7035 10.1423 20.6842 9.84959 20.6033 9.57116C20.5225 9.29273 20.3821 9.0352 20.1919 8.81642C20.0016 8.59764 19.7661 8.42284 19.5016 8.30412C19.2371 8.18541 18.9499 8.12562 18.66 8.12891H13Z" stroke="#64748B" stroke-width="2" stroke-linecap="round" stroke-linejoin="round"/>
</svg>
