<svg width="26" height="26" viewBox="0 0 26 26" fill="none" xmlns="http://www.w3.org/2000/svg">
<g clip-path="url(#clip0_1417_16339)">
<path d="M2 3.51758V23.9805C2 24.2998 2.12682 24.6059 2.35256 24.8317C2.57829 25.0574 2.88446 25.1842 3.2037 25.1842H23.6667V22.7768H4.40741V3.51758H2Z" fill="black"/>
<path d="M18.5968 17.45C18.7084 17.5577 18.8409 17.6432 18.9868 17.7015C19.1327 17.7598 19.2891 17.7898 19.447 17.7898C19.605 17.7898 19.7613 17.7598 19.9072 17.7015C20.0531 17.6432 20.1856 17.5577 20.2972 17.45L26.3099 11.6561L24.6095 10.0176L19.447 14.9922L16.6896 12.3351C16.578 12.2274 16.4455 12.142 16.2996 12.0837C16.1537 12.0254 15.9974 11.9954 15.8394 11.9954C15.6815 11.9954 15.5251 12.0254 15.3792 12.0837C15.2333 12.142 15.1008 12.2274 14.9892 12.3351L8.97656 18.1291L10.6769 19.7676L15.8394 14.7929L18.5968 17.45Z" fill="black"/>
</g>
<defs>
<clipPath id="clip0_1417_16339">
<rect width="26" height="26" fill="white" transform="translate(0 -0.00390625)"/>
</clipPath>
</defs>
</svg>
