<svg width="25" height="25" viewBox="0 0 25 25" fill="none" xmlns="http://www.w3.org/2000/svg">
<path d="M5.94922 5.5H11.9492C12.4992 5.5 12.9492 5.05 12.9492 4.5C12.9492 3.95 12.4992 3.5 11.9492 3.5H5.94922C4.84922 3.5 3.94922 4.4 3.94922 5.5V19.5C3.94922 20.6 4.84922 21.5 5.94922 21.5H11.9492C12.4992 21.5 12.9492 21.05 12.9492 20.5C12.9492 19.95 12.4992 19.5 11.9492 19.5H5.94922V5.5Z" fill="#636C71"/>
<path d="M21.5992 12.15L18.8092 9.36C18.4892 9.04 17.9492 9.26 17.9492 9.71V11.5H10.9492C10.3992 11.5 9.94922 11.95 9.94922 12.5C9.94922 13.05 10.3992 13.5 10.9492 13.5H17.9492V15.29C17.9492 15.74 18.4892 15.96 18.7992 15.64L21.5892 12.85C21.7892 12.66 21.7892 12.34 21.5992 12.15Z" fill="#636C71"/>
</svg>
