<svg width="25" height="24" viewBox="0 0 25 24" fill="none" xmlns="http://www.w3.org/2000/svg">
<path d="M16.0982 18.8588C14.9277 19.411 13.8432 19.6871 12.8447 19.6871C10.7101 19.6871 8.88542 18.9451 7.37055 17.4612C5.89011 15.9427 5.14989 14.1137 5.14989 11.9741C5.14989 10.0416 5.78682 8.35059 7.06069 6.90118C8.33455 5.45176 9.90106 4.58902 11.7602 4.31294V1C8.97149 1.27608 6.61311 2.46667 4.6851 4.57176C2.79152 6.64235 1.84473 9.1098 1.84473 11.9741C1.84473 15.011 2.91202 17.6165 5.0466 19.7906C7.21562 21.9302 9.81499 23 12.8447 23C16.563 23 19.5239 21.4988 21.7274 18.4965L18.8353 16.7882C18.1812 17.582 17.2688 18.2722 16.0982 18.8588Z" fill="#FB8904"/>
<path d="M20.9527 4.57176C19.0591 2.46667 16.718 1.27608 13.9292 1V4.31294C15.7884 4.58902 17.3549 5.45176 18.6288 6.90118C19.9026 8.35059 20.5396 10.0416 20.5396 11.9741C20.5396 12.8714 20.3674 13.8031 20.0231 14.7694L22.9151 16.4776C23.5349 15.1318 23.8447 13.6306 23.8447 11.9741C23.8447 9.1098 22.8807 6.64235 20.9527 4.57176Z" fill="#FB8904"/>
</svg>
