<svg width="21" height="22" viewBox="0 0 21 22" fill="none" xmlns="http://www.w3.org/2000/svg">
<path d="M9.03739 1.30679C9.48257 0.861615 10.1114 0.652042 10.7346 0.74113L18.1588 1.80236C19.0387 1.92814 19.73 2.61954 19.8557 3.49945L20.9162 10.9247C21.0052 11.5479 20.7956 12.1766 20.3505 12.6217L11.8656 21.1066C11.678 21.2941 11.4237 21.3994 11.1586 21.3994C10.8934 21.3994 10.6391 21.2941 10.4516 21.1066L0.551576 11.2066C0.364104 11.0191 0.258789 10.7648 0.258789 10.4996C0.258789 10.2344 0.364104 9.98014 0.551576 9.79261L9.03739 1.30679ZM12.5726 9.08561C12.7583 9.2713 12.9788 9.41858 13.2215 9.51905C13.4642 9.61952 13.7243 9.67121 13.9869 9.67116C14.2496 9.67112 14.5096 9.61934 14.7523 9.51878C14.9949 9.41823 15.2154 9.27087 15.4011 9.08511C15.5868 8.89936 15.734 8.67885 15.8345 8.43617C15.935 8.19349 15.9867 7.93341 15.9866 7.67076C15.9866 7.40811 15.9348 7.14804 15.8342 6.9054C15.7337 6.66276 15.5863 6.4423 15.4006 6.25661C15.2148 6.07092 14.9943 5.92364 14.7516 5.82317C14.509 5.7227 14.2489 5.67101 13.9862 5.67106C13.4558 5.67115 12.9471 5.88196 12.5721 6.25711C12.1971 6.63226 11.9864 7.14102 11.9865 7.67146C11.9866 8.20191 12.1974 8.71059 12.5726 9.08561Z" fill="#636C71"/>
</svg>
