<svg width="25" height="32" viewBox="0 0 25 32" fill="none" xmlns="http://www.w3.org/2000/svg">
<path d="M0.833496 31.543C0.833496 28.4488 2.06266 25.4813 4.25058 23.2934C6.43851 21.1055 9.40597 19.8763 12.5002 19.8763C15.5944 19.8763 18.5618 21.1055 20.7497 23.2934C22.9377 25.4813 24.1668 28.4488 24.1668 31.543H21.2502C21.2502 29.2223 20.3283 26.9967 18.6873 25.3558C17.0464 23.7148 14.8208 22.793 12.5002 22.793C10.1795 22.793 7.95392 23.7148 6.31298 25.3558C4.67204 26.9967 3.75016 29.2223 3.75016 31.543H0.833496ZM12.5002 18.418C7.66579 18.418 3.75016 14.5023 3.75016 9.66797C3.75016 4.83359 7.66579 0.917969 12.5002 0.917969C17.3345 0.917969 21.2502 4.83359 21.2502 9.66797C21.2502 14.5023 17.3345 18.418 12.5002 18.418ZM12.5002 15.5013C15.7231 15.5013 18.3335 12.8909 18.3335 9.66797C18.3335 6.44505 15.7231 3.83464 12.5002 3.83464C9.27725 3.83464 6.66683 6.44505 6.66683 9.66797C6.66683 12.8909 9.27725 15.5013 12.5002 15.5013Z" fill="#AFAFAF"/>
</svg>
