<svg width="36" height="35" viewBox="0 0 36 35" fill="none" xmlns="http://www.w3.org/2000/svg">
<path d="M28.1622 8.92641L27.9044 9.04297L27.7879 9.3007L26.8816 11.3044L25.9754 9.3007L25.8589 9.04297L25.6011 8.92641L23.5975 8.02018L25.6011 7.11395L25.8589 6.99739L25.9754 6.73967L26.8816 4.73599L27.7879 6.73967L27.9044 6.99739L28.1622 7.11395L30.1658 8.02018L28.1622 8.92641ZM30.2528 18.8591L30.3692 19.1159L30.6261 19.2324L31.6282 19.6868L30.6261 20.1413L30.3692 20.2578L30.2528 20.5146L29.7983 21.5167L29.3439 20.5146L29.2274 20.2578L28.9706 20.1413L27.9684 19.6868L28.9706 19.2324L29.2274 19.1159L29.3439 18.8591L29.7983 17.857L30.2528 18.8591ZM23.1329 19.2787L22.8041 19.5277L22.8384 19.9387C22.8499 20.0771 22.8504 20.2346 22.8504 20.416C22.8504 20.6001 22.8498 20.7533 22.8389 20.8731L22.8012 21.2875L23.1329 21.5388L25.4346 23.2829L22.45 28.4521L19.7927 27.3369L19.4214 27.1811L19.0864 27.4045C18.8084 27.5898 18.5294 27.7494 18.2337 27.8973L17.8745 28.0769L17.8249 28.4755L17.4692 31.3327H11.5021L11.1467 28.4897L11.0969 28.0914L10.7379 27.9119C10.4478 27.7668 10.1518 27.5923 9.87788 27.4143L9.54501 27.1979L9.17893 27.3515L6.52158 28.4667L3.53705 23.2975L5.83876 21.5534L6.16747 21.3043L6.13322 20.8933C6.12169 20.755 6.12122 20.5974 6.12122 20.416C6.12122 20.2346 6.12169 20.0771 6.13322 19.9387L6.16747 19.5277L5.83876 19.2787L3.53705 17.5346L6.52032 12.3676L9.17631 13.494L9.53377 13.6456L9.86391 13.4412C10.1751 13.2486 10.4526 13.0774 10.7379 12.9348L11.0971 12.7551L11.1467 12.3566L11.5024 9.49935H17.4696L17.8249 12.3424L17.8747 12.7407L18.2337 12.9202C18.5238 13.0652 18.8198 13.2397 19.0937 13.4178L19.4266 13.6341L19.7927 13.4805L22.45 12.3654L25.4346 17.5346L23.1329 19.2787ZM21.238 26.4153L21.8533 26.675L22.1823 26.0937L23.2469 24.2125L23.5698 23.6418L23.0473 23.2455L21.2738 21.9005C21.3808 21.4154 21.4337 20.9153 21.4337 20.4014C21.4337 19.8876 21.3808 19.3875 21.2738 18.9023L23.0473 17.5574L23.5734 17.1584L23.2444 16.586L22.1798 14.7339L21.8492 14.1588L21.238 14.4167L19.1774 15.2862C18.4442 14.613 17.5598 14.0932 16.583 13.7869L16.3093 11.574L16.2279 10.916H15.565H13.4212H12.7574L12.6768 11.5749L12.4026 13.8163C11.426 14.1226 10.5419 14.6423 9.80876 15.3153L7.74822 14.4458L7.13701 14.1879L6.8064 14.7631L5.74182 16.6152L5.41281 17.1876L5.93885 17.5865L7.71235 18.9315C7.60535 19.4166 7.55247 19.9168 7.55247 20.4306C7.55247 20.9444 7.60535 21.4446 7.71235 21.9297L5.93885 23.2747L5.41281 23.6736L5.74182 24.246L6.80641 26.0981L7.13701 26.6733L7.74822 26.4153L9.80876 25.5459C10.542 26.219 11.4264 26.7388 12.4032 27.0451L12.6769 29.2581L12.7583 29.916H13.4212H15.5504H16.2098L16.2942 29.262L16.5802 27.046C17.5581 26.7398 18.4435 26.2197 19.1774 25.5459L21.238 26.4153ZM16.6941 20.416C16.6941 19.1997 15.7021 18.2077 14.4858 18.2077C13.2695 18.2077 12.2775 19.1997 12.2775 20.416C12.2775 21.6323 13.2695 22.6243 14.4858 22.6243C15.7021 22.6243 16.6941 21.6323 16.6941 20.416ZM10.8608 20.416C10.8608 18.4094 12.4792 16.791 14.4858 16.791C16.4924 16.791 18.1108 18.4094 18.1108 20.416C18.1108 22.4226 16.4924 24.041 14.4858 24.041C12.4792 24.041 10.8608 22.4226 10.8608 20.416Z" stroke="#FB8904" stroke-width="1.5"/>
</svg>
