<svg width="107" height="63" viewBox="0 0 107 63" fill="none" xmlns="http://www.w3.org/2000/svg">
<path d="M13.932 61H9.47213L8.91465 46.5055H5.60462L5.01229 61H0.552459L3.89734 0.79222H10.5871L13.932 61ZM8.35717 29.7812L7.24221 3.02214L6.12725 29.7812L5.60462 43.1607H8.91465L8.35717 29.7812ZM22.2942 0.79222V61H17.8343V0.79222H22.2942ZM40.0987 19.7465L41.1788 42.0457L42.2589 19.7465L43.4087 0.79222H47.8685L43.4087 61H38.9489L34.489 0.79222H38.9489L40.0987 19.7465ZM64.5929 55.4252C64.5929 55.7039 64.5581 56.215 64.4884 56.9583C64.4187 57.6784 64.1748 58.4217 63.7567 59.1882C63.3386 59.9547 62.6766 60.6283 61.7707 61.2091C60.8648 61.813 59.5756 62.115 57.9032 62.115C56.2307 62.115 54.9415 61.813 54.0356 61.2091C53.1297 60.6283 52.4677 59.9547 52.0496 59.1882C51.6315 58.4217 51.3876 57.6784 51.3179 56.9583C51.2482 56.215 51.2134 55.7039 51.2134 55.4252V6.36701C51.2134 6.18119 51.225 5.90245 51.2482 5.5308C51.2715 5.15914 51.3412 4.75265 51.4573 4.31131C51.5734 3.84674 51.7709 3.38218 52.0496 2.91761C52.3284 2.42982 52.7116 1.98848 53.1994 1.5936C53.6872 1.19872 54.3144 0.885134 55.0809 0.65285C55.8475 0.397339 56.7882 0.269583 57.9032 0.269583C59.0181 0.269583 59.9589 0.397339 60.7254 0.65285C61.4919 0.885134 62.1191 1.19872 62.6069 1.5936C63.0947 1.98848 63.478 2.42982 63.7567 2.91761C64.0354 3.38218 64.2329 3.84674 64.349 4.31131C64.4652 4.75265 64.5348 5.15914 64.5581 5.5308C64.5813 5.90245 64.5929 6.18119 64.5929 6.36701V55.4252ZM55.6732 55.4252C55.6732 55.7039 55.6849 56.0408 55.7081 56.4356C55.7313 56.8073 55.8126 57.1673 55.952 57.5158C56.0913 57.8642 56.312 58.1661 56.614 58.4217C56.916 58.6539 57.3457 58.7701 57.9032 58.7701C58.4606 58.7701 58.8904 58.6539 59.1923 58.4217C59.4943 58.1661 59.715 57.8642 59.8543 57.5158C59.9937 57.1673 60.075 56.8073 60.0982 56.4356C60.1215 56.0408 60.1331 55.7039 60.1331 55.4252V6.36701C60.1331 6.08828 60.1215 5.78631 60.0982 5.46111C60.075 5.13591 59.9937 4.84556 59.8543 4.59005C59.715 4.31131 59.4943 4.07903 59.1923 3.8932C58.8904 3.70737 58.4606 3.61446 57.9032 3.61446C57.3457 3.61446 56.916 3.70737 56.614 3.8932C56.312 4.07903 56.0913 4.31131 55.952 4.59005C55.8126 4.84556 55.7313 5.13591 55.7081 5.46111C55.6849 5.78631 55.6732 6.08828 55.6732 6.36701V55.4252ZM74.0701 0.79222V61H69.6102V0.79222H74.0701ZM92.4669 25.3213H88.007V6.36701C88.007 5.80954 87.9374 5.35658 87.798 5.00816C87.6819 4.63651 87.5193 4.35777 87.3102 4.17194C87.1011 3.96288 86.8572 3.82351 86.5785 3.75383C86.323 3.66092 86.0559 3.61446 85.7771 3.61446C85.4984 3.61446 85.2197 3.66092 84.9409 3.75383C84.6854 3.82351 84.4531 3.96288 84.2441 4.17194C84.035 4.35777 83.8608 4.63651 83.7214 5.00816C83.6053 5.35658 83.5472 5.80954 83.5472 6.36701V55.4252C83.5472 55.7039 83.5588 56.0408 83.5821 56.4356C83.6053 56.8073 83.6866 57.1673 83.826 57.5158C83.9653 57.8642 84.186 58.1661 84.488 58.4217C84.7899 58.6539 85.2197 58.7701 85.7771 58.7701C86.3346 58.7701 86.7643 58.6539 87.0663 58.4217C87.3683 58.1661 87.5889 57.8642 87.7283 57.5158C87.8677 57.1673 87.949 56.8073 87.9722 56.4356C87.9954 56.0408 88.007 55.7039 88.007 55.4252V32.0111H92.4669V55.4252C92.4669 55.7039 92.432 56.215 92.3624 56.9583C92.2927 57.6784 92.0488 58.4217 91.6307 59.1882C91.2126 59.9547 90.5505 60.6283 89.6446 61.2091C88.7387 61.813 87.4496 62.115 85.7771 62.115C84.1047 62.115 82.8155 61.813 81.9096 61.2091C81.0037 60.6283 80.3417 59.9547 79.9236 59.1882C79.5055 58.4217 79.2616 57.6784 79.1919 56.9583C79.1222 56.215 79.0874 55.7039 79.0874 55.4252V6.36701C79.0874 5.29851 79.2848 4.38099 79.6797 3.61446C80.0746 2.8247 80.5856 2.18592 81.2128 1.69812C81.8632 1.21033 82.5832 0.850291 83.373 0.618008C84.1628 0.385725 84.9641 0.269583 85.7771 0.269583C86.6366 0.269583 87.4612 0.397339 88.2509 0.65285C89.0639 0.908362 89.784 1.29163 90.4112 1.80265C91.0383 2.31367 91.5378 2.95245 91.9094 3.71899C92.2811 4.48552 92.4669 5.3682 92.4669 6.36701V25.3213ZM106.961 4.1371H101.387V27.5512H105.846V30.8961H101.387V57.6551H106.961V61H96.9267V0.79222H106.961V4.1371Z" fill="#1D1D1D"/>
</svg>
