<svg width="25" height="16" viewBox="0 0 25 16" fill="none" xmlns="http://www.w3.org/2000/svg">
<path d="M19.85 6.04C19.17 2.59 16.14 0 12.5 0C9.61 0 7.1 1.64 5.85 4.04C2.84 4.36 0.5 6.91 0.5 10C0.5 13.31 3.19 16 6.5 16H19.5C22.26 16 24.5 13.76 24.5 11C24.5 8.36 22.45 6.22 19.85 6.04ZM19.5 14H6.5C4.29 14 2.5 12.21 2.5 10C2.5 7.95 4.03 6.24 6.06 6.03L7.13 5.92L7.63 4.97C8.58 3.14 10.44 2 12.5 2C15.12 2 17.38 3.86 17.89 6.43L18.19 7.93L19.72 8.04C21.28 8.14 22.5 9.45 22.5 11C22.5 12.65 21.15 14 19.5 14ZM8.5 9H11.05V12H13.95V9H16.5L12.5 5L8.5 9Z" fill="white"/>
</svg>
