<svg width="25" height="24" viewBox="0 0 25 24" fill="none" xmlns="http://www.w3.org/2000/svg">
<path d="M12.5 14.5C14.16 14.5 15.49 13.16 15.49 11.5L15.5 5.5C15.5 3.84 14.16 2.5 12.5 2.5C10.84 2.5 9.5 3.84 9.5 5.5V11.5C9.5 13.16 10.84 14.5 12.5 14.5ZM11.3 5.4C11.3 4.74 11.84 4.2 12.5 4.2C13.16 4.2 13.7 4.74 13.7 5.4L13.69 11.6C13.69 12.26 13.16 12.8 12.5 12.8C11.84 12.8 11.3 12.26 11.3 11.6V5.4ZM17.8 11.5C17.8 14.5 15.26 16.6 12.5 16.6C9.74 16.6 7.2 14.5 7.2 11.5H5.5C5.5 14.91 8.22 17.73 11.5 18.22V21.5H13.5V18.22C16.78 17.74 19.5 14.92 19.5 11.5H17.8Z" fill="white"/>
</svg>
